<?xml version="1.0" encoding="UTF-8"?>
<!-- Generator: visioncortex VTracer 0.6.4 -->
<svg version="1.1" xmlns="http://www.w3.org/2000/svg" width="2049" height="2049">
<path d="M0 0 C676.17 0 1352.34 0 2049 0 C2049 676.17 2049 1352.34 2049 2049 C1372.83 2049 696.66 2049 0 2049 C0 1372.83 0 696.66 0 0 Z " fill="#CE202F" transform="translate(0,0)"/>
<path d="M0 0 C1.27613159 -0.00100708 2.55226318 -0.00201416 3.86706543 -0.00305176 C25.09877432 0.00823006 46.03629558 0.80670987 67.125 3.25 C67.78705444 3.32496704 68.44910889 3.39993408 69.13122559 3.47717285 C128.2175815 10.17932281 188.08545918 25.18385404 237.125 60.25 C238.14464844 60.97574219 239.16429687 61.70148437 240.21484375 62.44921875 C257.01621834 74.74667689 272.32626363 88.80108249 285.125 105.25 C285.90101563 106.2090625 286.67703125 107.168125 287.4765625 108.15625 C311.16019001 137.92995315 324.54848513 171.83337745 331.97045898 208.80123901 C332.36014186 210.73862962 332.75899249 212.67416933 333.15820312 214.60961914 C335.11840424 224.69746746 335.54142443 233.74563978 336.125 244.25 C270.125 244.25 204.125 244.25 136.125 244.25 C134.145 231.875 134.145 231.875 132.125 219.25 C125.41910373 195.62695632 113.84724785 176.39102018 92.1015625 163.7578125 C86.26498001 160.80122347 80.17199622 158.43004014 74.0847168 156.04345703 C72.33850784 155.3364458 70.62329446 154.553954 68.9140625 153.76171875 C27.03240969 135.73272093 -36.74922185 135.79266655 -79.20703125 151.84765625 C-87.62905531 155.21841429 -94.83332408 159.47398479 -101.875 165.25 C-102.60203125 165.81460938 -103.3290625 166.37921875 -104.078125 166.9609375 C-113.9915226 175.02030273 -120.88824666 186.75734275 -122.6875 199.5 C-122.78362227 201.08164826 -122.83969154 202.66582703 -122.875 204.25 C-122.92527344 205.54035156 -122.97554687 206.83070313 -123.02734375 208.16015625 C-123.49088943 224.60861112 -119.65395091 239.60444712 -108.875 252.4375 C-86.46366101 275.60983522 -54.0283367 285.69663835 -23.875 294.25 C-22.46565186 294.6514624 -22.46565186 294.6514624 -21.02783203 295.06103516 C-6.67724801 299.09514094 7.85773479 302.18313202 22.44418335 305.21669006 C28.88115715 306.55581346 35.29859765 307.94550568 41.6875 309.5 C47.37457673 310.87394208 53.06733619 312.00715166 58.82617188 313.03613281 C65.41288407 314.24337478 71.89928635 315.82729112 78.40380859 317.41162109 C83.58623807 318.66719232 88.76291718 319.80895429 94 320.8125 C98.69011938 321.72026504 103.27103773 322.7888415 107.875 324.0625 C113.74272939 325.68118397 119.63121395 327.03542802 125.58227539 328.3137207 C139.65248181 331.34096189 153.38239895 334.98772712 167.125 339.25 C168.60544435 339.7067848 170.0859147 340.16348536 171.56640625 340.62011719 C240.15367204 361.81257762 304.9014153 390.93427305 340.125 457.25 C346.65925131 469.65259165 350.19773884 482.77996632 353.3125 496.375 C353.46734863 497.04168701 353.62219727 497.70837402 353.78173828 498.39526367 C356.76455559 512.02242196 357.49815339 525.42437037 357.4375 539.3125 C357.43476578 540.61634644 357.43476578 540.61634644 357.43197632 541.9465332 C357.18685608 611.87047373 333.82182014 670.58306923 285.125 720.4375 C280.07882156 725.42000426 274.71018725 729.88705594 269.125 734.25 C268.23554687 734.95640625 267.34609375 735.6628125 266.4296875 736.390625 C257.43368271 743.35689055 247.86297195 749.38278601 238.125 755.25 C237.35188477 755.71696289 236.57876953 756.18392578 235.78222656 756.66503906 C200.13143076 777.91055778 159.20545448 789.4684865 118.5625 796.375 C117.55520844 796.54775452 116.54791687 796.72050903 115.51010132 796.89849854 C99.75548638 799.59156582 84.0689781 801.99861724 68.125 803.25 C66.93922363 803.35006348 65.75344727 803.45012695 64.53173828 803.55322266 C-8.76732748 809.51975345 -88.05587251 806.44644193 -158.40673828 783.06201172 C-160.90903265 782.2388039 -163.41966618 781.44705365 -165.93359375 780.66015625 C-203.74697414 768.67333971 -239.06371742 749.45166836 -268.875 723.25 C-270.20337891 722.08984375 -270.20337891 722.08984375 -271.55859375 720.90625 C-280.64006355 712.85901935 -289.09928186 704.4600179 -296.58544922 694.89453125 C-297.50359458 693.72364387 -298.42775454 692.55746216 -299.35595703 691.39453125 C-307.77508597 680.83626422 -315.13163827 669.94539038 -321.875 658.25 C-322.23932129 657.63511719 -322.60364258 657.02023437 -322.97900391 656.38671875 C-343.68593701 621.32777242 -351.875 577.51587555 -351.875 537.25 C-285.875 537.25 -219.875 537.25 -151.875 537.25 C-151.215 544.18 -150.555 551.11 -149.875 558.25 C-146.01102331 583.27384902 -135.15445567 602.92702481 -117.875 621.25 C-117.26269531 621.92675781 -116.65039062 622.60351562 -116.01953125 623.30078125 C-100.11494213 640.22272149 -76.95578879 651.12574522 -54.875 657.25 C-54.22047852 657.43997559 -53.56595703 657.62995117 -52.89160156 657.82568359 C-32.9647256 663.56978306 -11.9819213 665.48971194 8.6875 665.5625 C9.40510498 665.56511841 10.12270996 665.56773682 10.86206055 665.57043457 C24.89506569 665.57586951 38.35524583 664.00542696 52.125 661.25 C52.92244629 661.10046875 53.71989258 660.9509375 54.54150391 660.796875 C84.62788817 655.10004484 114.5173456 640.33517057 133 615.3125 C142.68340492 600.48035783 145.34732541 585.94908002 145.5625 568.5625 C145.58489746 567.43440918 145.60729492 566.30631836 145.63037109 565.14404297 C145.58990665 550.56193381 139.80693029 536.72860892 129.89453125 525.953125 C105.7614232 502.72567443 70.7241487 491.65221214 39.00239563 483.13432312 C34.38493847 481.89311659 29.80270119 480.5651189 25.23066711 479.16633606 C14.36936178 475.84402318 3.44353206 472.86365817 -7.5625 470.0625 C-8.46563934 469.83144562 -9.36877869 469.60039124 -10.29928589 469.36233521 C-27.33529116 465.01505894 -44.4604895 461.11729702 -61.62548828 457.31689453 C-81.05325728 453.01428845 -100.41162851 448.44749807 -119.75054932 443.76306152 C-122.84650591 443.01537827 -125.9449699 442.27823103 -129.04296875 441.5390625 C-140.39596922 438.8010533 -151.50723862 435.59971339 -162.6015625 431.953125 C-165.95530588 430.85437945 -169.31448632 429.8178827 -172.7109375 428.859375 C-215.20073984 416.86460455 -254.79992462 396.73576984 -286.875 366.25 C-287.50664062 365.67121094 -288.13828125 365.09242188 -288.7890625 364.49609375 C-317.01654204 337.80707873 -332.80294099 298.36442342 -334.08349609 260.03955078 C-334.22403985 254.31807121 -334.25273163 248.59799794 -334.25 242.875 C-334.25172211 241.95913116 -334.25344421 241.04326233 -334.25521851 240.09963989 C-334.25121827 221.29073369 -332.9632912 202.64300693 -328.875 184.25 C-328.62991699 183.11643066 -328.62991699 183.11643066 -328.37988281 181.95996094 C-317.18115609 130.97573929 -285.28170063 85.2029435 -241.46484375 56.68115234 C-231.24915152 50.23239671 -220.76880545 44.37694265 -209.85791016 39.19433594 C-207.78768568 38.20841765 -205.72779363 37.20275842 -203.66796875 36.1953125 C-186.61669336 27.92254565 -169.15321265 22.21699392 -150.875 17.25 C-149.79653809 16.95448242 -148.71807617 16.65896484 -147.60693359 16.35449219 C-114.70780342 7.483797 -80.81837877 3.44828568 -46.875 1.25 C-46.18212891 1.20300964 -45.48925781 1.15601929 -44.77539062 1.10760498 C-29.85962774 0.11488449 -14.94465508 0.00823184 0 0 Z " fill="#FEFEFE" transform="translate(605.875,562.75)"/>
<path d="M0 0 C69.3 0 138.6 0 210 0 C210 75.9 210 151.8 210 230 C260.82 230 311.64 230 364 230 C364 276.53 364 323.06 364 371 C313.18 371 262.36 371 210 371 C210.06146737 420.80181165 210.13358535 470.60355613 210.22898628 520.40531192 C210.24025352 526.29405213 210.25139212 532.18279259 210.26245117 538.0715332 C210.2657567 539.82993682 210.2657567 539.82993682 210.269129 541.62386375 C210.3044351 560.56817445 210.32933691 579.51248511 210.35034702 598.45681644 C210.37216247 617.91689725 210.4052671 637.37693561 210.44870156 656.83698028 C210.47511959 668.83050357 210.49288735 680.82397405 210.49934604 692.81752496 C210.50463021 701.05850595 210.52094784 709.29942067 210.54566566 717.54036606 C210.55957764 722.28439686 210.56889053 727.02830932 210.56500816 731.77236176 C210.55263892 750.71066835 210.63262583 769.28988979 214 788 C214.21237966 789.20265786 214.42475931 790.40531572 214.64357471 791.64441776 C216.90667608 803.26555102 223.14004272 817.05247234 233 824 C252.7204865 836.18030048 275.83965852 837.39070517 298.4375 837.25 C299.31096069 837.24723053 300.18442139 837.24446106 301.08435059 837.24160767 C322.46948671 837.1623583 342.77322807 835.18401579 364 832 C364 885.79 364 939.58 364 995 C326.0015283 1004.49961793 283.85063274 1002.18140998 244.92335129 1002.24542618 C242.66146245 1002.24992744 240.39960345 1002.2576291 238.13772583 1002.26596069 C219.6725742 1002.32487987 201.39691496 1001.74006859 183 1000 C181.59338862 999.87695852 180.18666414 999.75519689 178.77978516 999.63525391 C161.95943934 998.15309036 145.5007071 995.56503962 129 992 C128.23300781 991.83918945 127.46601562 991.67837891 126.67578125 991.51269531 C87.86233652 983.26574857 49.30776192 962.45906269 27.1171875 928.703125 C15.66596441 910.70142233 7.50375938 891.81844575 3.75 870.75 C3.59893799 869.90759766 3.44787598 869.06519531 3.29223633 868.19726562 C0.50470918 851.12936108 -0.29973562 833.92696277 -0.24050903 816.66323853 C-0.24138417 814.72209377 -0.24314076 812.78094925 -0.24568737 810.83980596 C-0.25010454 805.57634706 -0.24223603 800.31297143 -0.23213124 795.04952312 C-0.22341661 789.34706193 -0.22642252 783.64460466 -0.22793579 777.94213867 C-0.22897962 768.08562755 -0.22275582 758.22914311 -0.21146011 748.3726387 C-0.19513956 734.12215329 -0.18999043 719.87168064 -0.18748413 705.6211869 C-0.18311727 682.49533439 -0.16985297 659.36949703 -0.15087891 636.24365234 C-0.13247926 613.79183017 -0.11832716 591.34001181 -0.10986328 568.88818359 C-0.1094687 567.84817887 -0.1094687 567.84817887 -0.10906615 566.78716396 C-0.10642888 559.82373126 -0.10387728 552.86029853 -0.10138843 545.89686577 C-0.08054339 487.59789898 -0.04361033 429.29895522 0 371 C-41.91 371 -83.82 371 -127 371 C-127 324.47 -127 277.94 -127 230 C-85.09 230 -43.18 230 0 230 C0 154.1 0 78.2 0 0 Z " fill="#FEFEFE" transform="translate(1091,354)"/>
<path d="M0 0 C2.07761044 0.0106918 4.15434971 0.00005963 6.23193359 -0.01269531 C14.71699508 -0.02138154 22.85388768 0.73536869 31.21240234 2.26074219 C32.47052734 2.44894531 33.72865234 2.63714844 35.02490234 2.83105469 C57.23333153 6.69575683 78.67626371 17.21101687 96.21240234 31.26074219 C97.24623047 32.08058594 98.28005859 32.90042969 99.34521484 33.74511719 C130.05901472 58.60845199 149.46976628 95.10840492 154.21240234 134.26074219 C157.38043517 175.94129484 145.36146059 216.82637334 118.08740234 248.69824219 C116.15264311 250.90774756 114.19154911 253.09097348 112.21240234 255.26074219 C111.52533203 256.02 110.83826172 256.77925781 110.13037109 257.56152344 C84.62625276 284.35427091 46.393725 299.71624887 9.86192322 300.66999817 C-26.59868361 301.38503812 -59.84062615 291.89309249 -88.78759766 269.26074219 C-89.33899414 268.83035645 -89.89039063 268.3999707 -90.45849609 267.95654297 C-110.65532885 251.98268434 -126.16521448 231.199354 -135.78759766 207.26074219 C-136.19558594 206.26107422 -136.19558594 206.26107422 -136.61181641 205.24121094 C-150.9122868 169.58370616 -150.90398754 128.6173784 -135.96655273 93.12255859 C-134.33899534 89.45063522 -132.60025273 85.84455381 -130.78759766 82.26074219 C-130.43826172 81.56754883 -130.08892578 80.87435547 -129.72900391 80.16015625 C-124.4961243 69.95795782 -118.23326172 60.96457364 -110.78759766 52.26074219 C-110.33094727 51.72433105 -109.87429688 51.18791992 -109.40380859 50.63525391 C-103.15796656 43.37507293 -96.44522057 37.04219651 -88.78759766 31.26074219 C-88.2579541 30.8561377 -87.72831055 30.4515332 -87.18261719 30.03466797 C-69.20726436 16.38389638 -49.12756042 7.07877888 -26.93701172 2.68701172 C-25.41904532 2.38597022 -23.90558614 2.06175837 -22.39599609 1.72119141 C-14.93899632 0.1550269 -7.5925413 -0.04632858 0 0 Z " fill="#FEFEFE" transform="translate(1683.78759765625,1069.7392578125)"/>
<path d="M0 0 C7.59 0 15.18 0 23 0 C23.33 21.78 23.66 43.56 24 66 C27.96 61.545 27.96 61.545 32 57 C35.0546875 54.9140625 35.0546875 54.9140625 37.875 53.625 C38.80054688 53.18414063 39.72609375 52.74328125 40.6796875 52.2890625 C48.77393831 49.14658866 55.79209206 47.52671883 64.5 47.6875 C65.37269531 47.68427734 66.24539063 47.68105469 67.14453125 47.67773438 C81.88591621 47.79784936 94.91931096 52.12186636 106 62 C106.60328125 62.51046875 107.2065625 63.0209375 107.828125 63.546875 C118.06550851 72.8619717 122.60571203 85.0000145 126 98 C126.24621094 98.84820313 126.49242187 99.69640625 126.74609375 100.5703125 C131.73160952 120.30607838 127.61512084 143.37095206 118.3671875 161.13671875 C109.77562753 175.46264548 97.78199959 183.95923749 81.71484375 188.0859375 C65.4532265 191.64928111 49.4142334 189.0999383 35.00390625 180.984375 C30.68068884 178.12846545 27.44922941 174.85502111 24 171 C23.67 175.95 23.34 180.9 23 186 C15.41 186 7.82 186 0 186 C0 124.62 0 63.24 0 0 Z " fill="#FEFCFB" transform="translate(1549,1447)"/>
<path d="M0 0 C7.26 0 14.52 0 22 0 C22 61.38 22 122.76 22 186 C14.74 186 7.48 186 0 186 C-0.33 180.39 -0.66 174.78 -1 169 C-2.32 170.98 -3.64 172.96 -5 175 C-13.28593568 184.35934098 -25.38662271 188.09862984 -37.52832031 189.23706055 C-55.49224171 190.194555 -70.3805744 186.86343524 -84.4296875 174.9375 C-94.90759331 165.05933964 -99.9120148 153.50538824 -104 140 C-104.26941406 139.11570312 -104.53882813 138.23140625 -104.81640625 137.3203125 C-109.18740998 119.65289881 -106.4401712 95.99070274 -98 80 C-97.46117187 78.96230469 -96.92234375 77.92460938 -96.3671875 76.85546875 C-89.19135183 63.80703214 -78.25840405 54.77543374 -64 50 C-47.44780807 45.42408819 -30.44117931 47.08143416 -15.125 54.75 C-9.65490127 57.92200991 -3.88820311 62.22359377 -1 68 C-0.67 45.56 -0.34 23.12 0 0 Z " fill="#FEFDFD" transform="translate(785,1447)"/>
<path d="M0 0 C1.10214844 0.36351562 2.20429688 0.72703125 3.33984375 1.1015625 C10.25708098 3.55785522 16.15520102 6.57176126 22 11 C23.03125 11.7425 24.0625 12.485 25.125 13.25 C31.84876013 19.68142274 36.11608086 27.21472779 39 36 C39.2990625 36.91007812 39.598125 37.82015625 39.90625 38.7578125 C41.79726236 45.04367767 42 49.0073579 42 56 C34.08 56 26.16 56 18 56 C17.01 50.555 17.01 50.555 16 45 C12.70664495 35.72826159 7.95020287 29.03598346 -0.86328125 24.5390625 C-9.89218889 20.56955546 -18.46420428 18.6166271 -28.3125 18.6875 C-29.55471313 18.69595947 -29.55471313 18.69595947 -30.82202148 18.70458984 C-42.33620211 18.93117187 -53.60584647 21.35379478 -61.8828125 29.95703125 C-67.96702254 37.64312267 -68.91792021 45.38537421 -68 55 C-66.52303866 60.76762753 -63.23425581 64.32941456 -58.37890625 67.62890625 C-46.96988276 74.20455033 -34.03768846 77.15330563 -21.1875 79.4375 C2.49910173 83.66116285 29.50470811 90.24680218 44.203125 110.671875 C51.13445089 121.53440065 51.47440616 135.588374 49.53125 147.9921875 C48.86932968 150.45862868 48.04678246 152.67160554 47 155 C46.60941406 155.88816406 46.21882812 156.77632812 45.81640625 157.69140625 C38.35903051 172.88079196 24.95288849 181.37101168 9.5 186.875 C-14.65522089 194.21798936 -42.7302078 193.52619266 -65.75 182.6875 C-81.9651886 173.73718084 -91.8452916 161.33276193 -97.9375 144 C-99.64784978 137.76348068 -99.18853539 131.41020326 -99 125 C-91.41 125 -83.82 125 -76 125 C-75.690625 127.84625 -75.690625 127.84625 -75.375 130.75 C-73.65514892 141.86847388 -68.58277812 151.89454502 -59.6328125 158.8359375 C-43.50976475 169.9117703 -22.84745619 171.1578561 -4 167.875 C6.52099331 165.43748539 14.76919952 160.97380594 21 152 C24.99889068 145.33982667 24.77381849 136.50423977 24 129 C21.43669703 120.92679345 15.80892277 116.72806011 8.70703125 112.69921875 C-2.27931273 107.19753021 -14.6834926 104.94216939 -26.59375 102.3046875 C-27.26291443 102.1559317 -27.93207886 102.0071759 -28.621521 101.85391235 C-31.9525482 101.11456208 -35.28494402 100.38592808 -38.62207031 99.67431641 C-55.8952968 95.89871139 -75.80238158 90.85785689 -87 76 C-94.24945511 63.99833138 -95.75377557 51.98706926 -93.34765625 38.28515625 C-90.66152494 28.58972091 -85.46809813 20.72128831 -78 14 C-77.52433594 13.53207031 -77.04867188 13.06414062 -76.55859375 12.58203125 C-57.96099838 -4.85041356 -23.33268493 -8.11289462 0 0 Z " fill="#FEFDFC" transform="translate(384,1446)"/>
<path d="M0 0 C0.63292969 0.43828125 1.26585937 0.8765625 1.91796875 1.328125 C15.67188146 11.77732184 22.50455704 30.64098505 25 47 C25 53.6 25 60.2 25 67 C-8 67 -41 67 -75 67 C-73.38186113 82.43259774 -73.38186113 82.43259774 -67 95 C-66.278125 96.051875 -65.55625 97.10375 -64.8125 98.1875 C-56.09517358 106.90482642 -45.53158673 110.08298986 -33.4375 110.375 C-23.24325101 110.12711553 -14.79534876 107.8228597 -7 101 C-2.67704128 95.89006875 -1.13788287 90.41364861 1 84 C8.26 84 15.52 84 23 84 C20.96958403 98.21291181 15.06308051 110.95031193 3.4375 119.875 C-8.09666407 127.27427507 -20.79713406 130.17895138 -34.3125 130.1875 C-35.31990234 130.19974609 -36.32730469 130.21199219 -37.36523438 130.22460938 C-43.29558751 130.23619964 -48.32381354 129.72378764 -54 128 C-54.92425781 127.72800781 -55.84851562 127.45601562 -56.80078125 127.17578125 C-71.70581937 122.05289878 -82.73049912 113.10931748 -90.10546875 99.140625 C-99.62680467 79.52560592 -102.91066368 54.8013905 -95.74072266 33.95019531 C-88.68233462 15.366674 -77.87268433 2.10139334 -60 -7 C-40.39440071 -15.31568763 -16.92834678 -12.52309778 0 0 Z " fill="#FEFDFC" transform="translate(1794,1506)"/>
<path d="M0 0 C0.63292969 0.43828125 1.26585937 0.8765625 1.91796875 1.328125 C15.67188146 11.77732184 22.50455704 30.64098505 25 47 C25 53.6 25 60.2 25 67 C-8 67 -41 67 -75 67 C-73.38186113 82.43259774 -73.38186113 82.43259774 -67 95 C-66.278125 96.051875 -65.55625 97.10375 -64.8125 98.1875 C-56.09517358 106.90482642 -45.53158673 110.08298986 -33.4375 110.375 C-23.24325101 110.12711553 -14.79534876 107.8228597 -7 101 C-2.67704128 95.89006875 -1.13788287 90.41364861 1 84 C8.26 84 15.52 84 23 84 C20.96958403 98.21291181 15.06308051 110.95031193 3.4375 119.875 C-8.09666407 127.27427507 -20.79713406 130.17895138 -34.3125 130.1875 C-35.31990234 130.19974609 -36.32730469 130.21199219 -37.36523438 130.22460938 C-43.29558751 130.23619964 -48.32381354 129.72378764 -54 128 C-54.92425781 127.72800781 -55.84851563 127.45601562 -56.80078125 127.17578125 C-71.70581937 122.05289878 -82.73049912 113.10931748 -90.10546875 99.140625 C-99.62680467 79.52560592 -102.91066368 54.8013905 -95.74072266 33.95019531 C-88.68233462 15.366674 -77.87268433 2.10139334 -60 -7 C-40.39440071 -15.31568763 -16.92834678 -12.52309778 0 0 Z " fill="#FEFDFC" transform="translate(932,1506)"/>
<path d="M0 0 C48.84 0 97.68 0 148 0 C148 6.93 148 13.86 148 21 C127.54 21 107.08 21 86 21 C86 75.45 86 129.9 86 186 C77.75 186 69.5 186 61 186 C61 131.55 61 77.1 61 21 C40.87 21 20.74 21 0 21 C0 14.07 0 7.14 0 0 Z " fill="#FEFDFD" transform="translate(1263,1447)"/>
<path d="M0 0 C0.79277344 0.23332031 1.58554688 0.46664063 2.40234375 0.70703125 C10.60219241 3.47400637 17.77102466 9.01155032 22.4375 16.375 C26.8256867 26.55559313 28.15788957 36.79367453 28.11352539 47.79077148 C28.11367142 48.74764359 28.11381744 49.70451569 28.1139679 50.69038391 C28.11327462 53.83397741 28.10550971 56.97751068 28.09765625 60.12109375 C28.09578999 62.30827299 28.09436707 64.49545264 28.09336853 66.68263245 C28.08955973 72.42500981 28.07974346 78.16736168 28.06866455 83.909729 C28.05841519 89.77510229 28.05386337 95.64047971 28.04882812 101.50585938 C28.03811968 113.00391922 28.02053618 124.5019535 28 136 C20.74 136 13.48 136 6 136 C5.9906543 133.1139502 5.98130859 130.22790039 5.97167969 127.25439453 C5.93783945 117.6949454 5.88225121 108.13571055 5.81609726 98.57643318 C5.77666956 92.78336618 5.74445786 86.99045012 5.72900391 81.19726562 C5.71380653 75.60145266 5.67930578 70.0060548 5.63169098 64.41042709 C5.61690902 62.28075656 5.60896082 60.15102675 5.60811615 58.02130508 C5.60573518 55.02694226 5.57856426 52.03371615 5.54589844 49.03955078 C5.5509288 48.1684819 5.55595917 47.29741302 5.56114197 46.39994812 C5.43969293 39.15533524 3.65169942 32.36246421 -0.89453125 26.59765625 C-10.21967201 19.13374521 -17.02346149 18.11101982 -29 19 C-38.49730191 20.43536049 -46.41784346 24.34498066 -52.375 32 C-60.8454212 44.42484435 -60.32048474 57.73572856 -60.4140625 72.23046875 C-60.43280404 74.07563616 -60.4523796 75.92079527 -60.4727478 77.76594543 C-60.52375984 82.58756585 -60.56354973 87.40921396 -60.60089111 92.23095703 C-60.64112623 97.16510697 -60.69212891 102.0991448 -60.7421875 107.03320312 C-60.83857994 116.6887306 -60.92210341 126.34430558 -61 136 C-68.26 136 -75.52 136 -83 136 C-83 91.45 -83 46.9 -83 1 C-76.4 1 -69.8 1 -63 1 C-63 7.93 -63 14.86 -63 22 C-62.34 22 -61.68 22 -61 22 C-60.814375 21.34 -60.62875 20.68 -60.4375 20 C-56.31139447 11.38899716 -48.13504497 4.43440011 -39.3125 0.93359375 C-36.88320476 0.18528406 -34.48274032 -0.45755254 -32 -1 C-31.25878906 -1.18433594 -30.51757812 -1.36867188 -29.75390625 -1.55859375 C-20.31523361 -3.07145901 -9.08759085 -3.07662078 0 0 Z " fill="#FEFDFD" transform="translate(1064,1497)"/>
<path d="M0 0 C7.26 0 14.52 0 22 0 C22.01458252 2.89128662 22.02916504 5.78257324 22.04418945 8.76147461 C22.09461089 18.33288274 22.1612194 27.90412948 22.23571491 37.47537899 C22.28037084 43.27629637 22.31963765 49.07714429 22.34643555 54.87817383 C22.37251595 60.48041071 22.41295223 66.08237961 22.46318626 71.68445015 C22.47982289 73.81774109 22.49135706 75.95107834 22.49761391 78.08442497 C22.50728975 81.08122477 22.53539107 84.07734391 22.56762695 87.07397461 C22.56547432 88.38597084 22.56547432 88.38597084 22.5632782 89.72447205 C22.69567032 98.47319849 24.65141919 105.79570511 31 112 C39.20489553 117.75264585 48.30634436 118.03220532 58 117 C68.03593669 114.61151133 75.82840826 109.84715686 81.75 101.375 C88.32941394 89.39429714 88.60320691 77.65142654 88.609375 64.35546875 C88.62438617 62.4907337 88.64111938 60.6260118 88.65948486 58.76130676 C88.70284124 53.89691496 88.72308646 49.03270239 88.73822021 44.16815186 C88.75790668 39.18686461 88.79986304 34.20576775 88.83984375 29.22460938 C88.91480183 19.48309986 88.96323756 9.7417286 89 0 C96.26 0 103.52 0 111 0 C111 44.22 111 88.44 111 134 C104.07 134 97.14 134 90 134 C89.67 127.73 89.34 121.46 89 115 C87.989375 116.36125 86.97875 117.7225 85.9375 119.125 C78.40540803 128.67461661 68.38657421 135.38992832 56 137 C46.38719806 137.49959426 36.26853995 137.87986777 27 135 C26.175 134.75507812 25.35 134.51015625 24.5 134.2578125 C15.80032388 131.26066798 9.26702347 126.06172587 5.0625 117.8125 C4.34533639 116.22137357 3.65681308 114.61697357 3 113 C2.64808594 112.22011719 2.29617188 111.44023438 1.93359375 110.63671875 C-0.32492213 104.25806512 -0.13963941 97.61079785 -0.11352539 90.93383789 C-0.11367142 89.94770508 -0.11381744 88.96157227 -0.1139679 87.94555664 C-0.1132744 84.70456702 -0.10550845 81.46363576 -0.09765625 78.22265625 C-0.09579007 75.96821626 -0.09436711 73.71377587 -0.09336853 71.45933533 C-0.08955912 65.53940705 -0.07974232 59.6195035 -0.06866455 53.69958496 C-0.05841651 47.65324233 -0.05386365 41.60689569 -0.04882812 35.56054688 C-0.0381186 23.70701867 -0.02053459 11.85351526 0 0 Z " fill="#FEFDFD" transform="translate(542,1499)"/>
<path d="M0 0 C11.75708442 7.76246672 17.50001152 17.6474014 20.76538086 31.23071289 C21.75512819 36.45261823 21.87183833 41.56065469 21.8203125 46.86328125 C21.81346436 47.95382812 21.80661621 49.044375 21.79956055 50.16796875 C21.51751677 64.36522829 17.75801469 77.23805899 8.03515625 87.92578125 C-0.29810265 95.80593151 -10.45747669 98.01380509 -21.64892578 97.90551758 C-32.68257227 97.4921796 -40.83543239 93.20165539 -48.6171875 85.48828125 C-60.59866606 70.95590725 -61.89478268 53.6066067 -60.6171875 35.48828125 C-59.01203983 22.18809824 -53.57920135 10.78106531 -43.109375 2.21484375 C-30.49298914 -6.52566182 -13.46585222 -7.77803703 0 0 Z " fill="#CE2130" transform="translate(1631.6171875,1519.51171875)"/>
<path d="M0 0 C9.76698479 7.40250904 15.48025845 17.0554303 18.18359375 29.02734375 C20.52466104 46.32220523 20.04944696 66.06860818 9.6875 80.75 C3.59664001 88.57137278 -5.37785007 94.36726506 -15.3125 95.75 C-27.95044594 96.64020173 -38.27581315 95.14408667 -48.24609375 86.796875 C-59.60429496 75.54602918 -63.46662442 61.97086615 -63.5625 46.4375 C-63.44799866 30.31477091 -61.11455566 14.71828179 -49.3125 2.75 C-35.57351408 -8.91662492 -15.01022045 -9.95461714 0 0 Z " fill="#CE2130" transform="translate(766.3125,1521.25)"/>
<path d="M0 0 C7.26 0 14.52 0 22 0 C22 13.2 22 26.4 22 40 C30.91 40 39.82 40 49 40 C49 46.6 49 53.2 49 60 C40.09 60 31.18 60 22 60 C22.06294255 71.23993965 22.13837352 82.4796058 22.23571491 93.71930122 C22.28041812 98.93850278 22.31967448 104.15762628 22.34643555 109.37695312 C22.37246883 114.4150982 22.41287172 119.4529429 22.46318626 124.49090195 C22.47985475 126.41175471 22.49136914 128.33265943 22.49761391 130.25357437 C22.50725511 132.94687544 22.53531466 135.6394081 22.56762695 138.33251953 C22.56619186 139.12446213 22.56475677 139.91640472 22.5632782 140.73234558 C22.64413841 145.50650811 23.29681714 148.89627724 26 153 C28.7902667 153.9300889 30.76529542 154.18698769 33.66796875 154.31640625 C34.47258545 154.35451416 35.27720215 154.39262207 36.10620117 154.43188477 C37.12302979 154.47498779 38.1398584 154.51809082 39.1875 154.5625 C42.425625 154.706875 45.66375 154.85125 49 155 C49 161.6 49 168.2 49 175 C45.0526266 175.06947789 41.10684271 175.12901982 37.15917969 175.16479492 C35.16847095 175.18701479 33.17796032 175.22516595 31.1875 175.26367188 C22.44098074 175.32993338 14.78189877 174.80676667 7.125 170.3125 C0.5054471 163.10886891 -0.15218853 155.07123578 -0.11352539 145.71166992 C-0.11367142 144.78435059 -0.11381744 143.85703125 -0.1139679 142.90161133 C-0.11327269 139.84453979 -0.10549864 136.78752961 -0.09765625 133.73046875 C-0.09579068 131.60769179 -0.09436743 129.48491439 -0.09336853 127.36213684 C-0.08955433 121.78084113 -0.07973339 116.19957154 -0.06866455 110.61828613 C-0.05842686 104.92065789 -0.05386586 99.22302542 -0.04882812 93.52539062 C-0.03811015 82.35024711 -0.0205222 71.17512981 0 60 C-7.59 60 -15.18 60 -23 60 C-23 53.4 -23 46.8 -23 40 C-15.41 40 -7.82 40 0 40 C0 26.8 0 13.6 0 0 Z " fill="#FEFEFE" transform="translate(1133,1458)"/>
<path d="M0 0 C7.26 0 14.52 0 22 0 C22 13.2 22 26.4 22 40 C30.91 40 39.82 40 49 40 C49 46.6 49 53.2 49 60 C40.09 60 31.18 60 22 60 C22.06294255 71.23993965 22.13837352 82.4796058 22.23571491 93.71930122 C22.28041812 98.93850278 22.31967448 104.15762628 22.34643555 109.37695312 C22.37246883 114.4150982 22.41287172 119.4529429 22.46318626 124.49090195 C22.47985475 126.41175471 22.49136914 128.33265943 22.49761391 130.25357437 C22.50725511 132.94687544 22.53531466 135.6394081 22.56762695 138.33251953 C22.56619186 139.12446213 22.56475677 139.91640472 22.5632782 140.73234558 C22.64413841 145.50650811 23.29681714 148.89627724 26 153 C28.7902667 153.9300889 30.76529542 154.18698769 33.66796875 154.31640625 C34.47258545 154.35451416 35.27720215 154.39262207 36.10620117 154.43188477 C37.12302979 154.47498779 38.1398584 154.51809082 39.1875 154.5625 C42.425625 154.706875 45.66375 154.85125 49 155 C49 161.6 49 168.2 49 175 C45.0526266 175.06947789 41.10684271 175.12901982 37.15917969 175.16479492 C35.16847095 175.18701479 33.17796032 175.22516595 31.1875 175.26367188 C22.44098074 175.32993338 14.78189877 174.80676667 7.125 170.3125 C0.5054471 163.10886891 -0.15218853 155.07123578 -0.11352539 145.71166992 C-0.11367142 144.78435059 -0.11381744 143.85703125 -0.1139679 142.90161133 C-0.11327269 139.84453979 -0.10549864 136.78752961 -0.09765625 133.73046875 C-0.09579068 131.60769179 -0.09436743 129.48491439 -0.09336853 127.36213684 C-0.08955433 121.78084113 -0.07973339 116.19957154 -0.06866455 110.61828613 C-0.05842686 104.92065789 -0.05386586 99.22302542 -0.04882812 93.52539062 C-0.03811015 82.35024711 -0.0205222 71.17512981 0 60 C-7.59 60 -15.18 60 -23 60 C-23 53.4 -23 46.8 -23 40 C-15.41 40 -7.82 40 0 40 C0 26.8 0 13.6 0 0 Z " fill="#FEFEFE" transform="translate(468,1458)"/>
<path d="M0 0 C0 7.59 0 15.18 0 23 C-3.6196875 23.37125 -3.6196875 23.37125 -7.3125 23.75 C-20.48869772 25.31320964 -31.19761479 29.54002084 -39.69140625 40.10546875 C-48.03212657 52.18083996 -48.45540338 67.09110838 -48.51171875 81.23828125 C-48.52860709 82.85639266 -48.54676274 84.47449128 -48.56611633 86.09257507 C-48.61317227 90.30589803 -48.64326646 94.51916916 -48.66955566 98.73266602 C-48.69958815 103.0503971 -48.7460391 107.36795018 -48.79101562 111.68554688 C-48.87654212 120.12362412 -48.94258786 128.5616846 -49 137 C-56.26 137 -63.52 137 -71 137 C-71 92.78 -71 48.56 -71 3 C-64.07 3 -57.14 3 -50 3 C-49.67 11.58 -49.34 20.16 -49 29 C-47.02 25.7 -45.04 22.4 -43 19 C-36.35333096 9.84120408 -26.77630003 3.20161478 -15.7265625 0.4296875 C-10.52202524 -0.39051178 -5.25571962 -0.05308808 0 0 Z " fill="#FEFDFD" transform="translate(1475,1496)"/>
<path d="M0 0 C7.26 0 14.52 0 22 0 C22 44.22 22 88.44 22 134 C14.74 134 7.48 134 0 134 C0 89.78 0 45.56 0 0 Z " fill="#FFFFFF" transform="translate(1492,1499)"/>
<path d="M0 0 C8.2112732 6.91944541 11.77006095 15.40212078 14.125 25.75 C14.125 27.07 14.125 28.39 14.125 29.75 C-11.285 29.75 -36.695 29.75 -62.875 29.75 C-61.59498848 16.94988475 -57.95990621 8.17954879 -48.5625 -0.5 C-34.06792523 -12.29492005 -14.57884783 -10.44127833 0 0 Z " fill="#CE2230" transform="translate(1781.875,1523.25)"/>
<path d="M0 0 C8.2112732 6.91944541 11.77006095 15.40212078 14.125 25.75 C14.125 27.07 14.125 28.39 14.125 29.75 C-11.285 29.75 -36.695 29.75 -62.875 29.75 C-61.59498848 16.94988475 -57.95990621 8.17954879 -48.5625 -0.5 C-34.06792523 -12.29492005 -14.57884783 -10.44127833 0 0 Z " fill="#CE2230" transform="translate(919.875,1523.25)"/>
<path d="M0 0 C7.26 0 14.52 0 22 0 C22 8.91 22 17.82 22 27 C14.74 27 7.48 27 0 27 C0 18.09 0 9.18 0 0 Z " fill="#FFFFFF" transform="translate(1492,1447)"/>
</svg>
